<svg width="560" height="560" viewBox="0 0 560 560" fill="none" xmlns="http://www.w3.org/2000/svg">
<path fill-rule="evenodd" clip-rule="evenodd" d="M71.1667 303.333C70.5223 303.333 70 303.856 70 304.5L70 465.5C70 466.144 70.5223 466.667 71.1667 466.667H162.167C162.811 466.667 163.333 466.144 163.333 465.5V304.5C163.333 303.856 162.811 303.333 162.167 303.333H71.1667Z" stroke="#393A40" stroke-width="35" stroke-linecap="round"/>
<path fill-rule="evenodd" clip-rule="evenodd" d="M234.5 93.3334C233.855 93.3334 233.333 93.8557 233.333 94.5L233.333 465.5C233.333 466.144 233.855 466.667 234.5 466.667H325.5C326.144 466.667 326.666 466.144 326.666 465.5V94.5C326.666 93.8557 326.144 93.3334 325.5 93.3334H234.5Z" stroke="#393A40" stroke-width="35" stroke-linecap="round"/>
<path fill-rule="evenodd" clip-rule="evenodd" d="M397.834 186.667C397.189 186.667 396.667 187.189 396.667 187.833L396.667 465.5C396.667 466.144 397.189 466.667 397.834 466.667H488.834C489.478 466.667 490 466.144 490 465.5V187.833C490 187.189 489.478 186.667 488.834 186.667H397.834Z" stroke="#393A40" stroke-width="35" stroke-linecap="round"/>
</svg>
