<svg width="36" height="36" viewBox="0 0 36 36" fill="none" xmlns="http://www.w3.org/2000/svg">
<path fill-rule="evenodd" clip-rule="evenodd" d="M17.4749 30.9216C17.7587 31.2428 18.2413 31.2428 18.5251 30.9216C20.4488 28.7445 27 20.7947 27 13.5C27 8.52944 22.9706 4.5 18 4.5C13.0294 4.5 9 8.52944 9 13.5C9 20.7947 15.5512 28.7445 17.4749 30.9216Z" fill="#393A40" stroke="#393A40" stroke-width="2.25"/>
<path fill-rule="evenodd" clip-rule="evenodd" d="M18 16.5C19.6569 16.5 21 15.1569 21 13.5C21 11.8431 19.6569 10.5 18 10.5C16.3431 10.5 15 11.8431 15 13.5C15 15.1569 16.3431 16.5 18 16.5Z" fill="white" stroke="white" stroke-width="2.25"/>
</svg>
