<svg width="1708" height="350" viewBox="0 0 1708 350" fill="none" xmlns="http://www.w3.org/2000/svg">
<g clip-path="url(#clip0_52_508)">
<circle cx="560.231" cy="219.23" r="126.786" transform="rotate(75 560.231 219.23)" fill="#FFC466"/>
<circle r="11.836" transform="matrix(-1 0 0 1 583.016 275.051)" fill="white"/>
<circle r="4.98357" transform="matrix(-1 0 0 1 577.41 273.183)" fill="#393A40"/>
<path d="M575.21 307.541C575.103 315.582 568.735 322.016 560.987 321.913C553.24 321.81 547.046 315.208 547.153 307.167" stroke="#393A40" stroke-width="4.87637" stroke-linecap="round"/>
<circle r="11.836" transform="matrix(-1 0 0 1 582.797 275.051)" fill="white"/>
<circle r="4.98357" transform="matrix(-1 0 0 1 580.928 271.936)" fill="#393A40"/>
<circle r="11.836" transform="matrix(-1 0 0 1 539.19 275.051)" fill="white"/>
<circle r="4.98357" transform="matrix(-1 0 0 1 537.321 271.936)" fill="#393A40"/>
<path fill-rule="evenodd" clip-rule="evenodd" d="M454.076 288.103C483.065 333.123 538.786 356.402 593.281 341.8C660.81 323.706 700.884 254.295 682.79 186.766C675.477 159.475 659.783 136.668 639.22 120.373C646.153 131.14 651.557 143.151 655.049 156.185C673.144 223.714 633.069 293.125 565.54 311.219C525.302 322.001 484.396 312.13 454.076 288.103Z" fill="#010201" fill-opacity="0.05"/>
</g>
<g clip-path="url(#clip1_52_508)">
<circle cx="864.978" cy="218.978" r="126.539" transform="rotate(75 864.978 218.978)" fill="#C5A6C6"/>
<path fill-rule="evenodd" clip-rule="evenodd" d="M759.031 287.717C787.962 332.65 843.576 355.885 897.966 341.312C965.363 323.253 1005.36 253.976 987.301 186.579C980.002 159.341 964.339 136.578 943.815 120.314C950.734 131.06 956.127 143.048 959.613 156.055C977.672 223.453 937.675 292.729 870.278 310.788C830.118 321.549 789.291 311.697 759.031 287.717Z" fill="#010201" fill-opacity="0.05"/>
<circle cx="843.145" cy="131.585" r="11.813" fill="white"/>
<circle cx="847.014" cy="133.832" r="4.97388" fill="#393A40"/>
<circle cx="886.669" cy="131.585" r="11.813" fill="white"/>
<circle cx="883.032" cy="133.506" r="4.97388" fill="#393A40"/>
<g filter="url(#filter0_i_52_508)">
<rect x="854.21" y="149.46" width="21.4143" height="29.2014" rx="10.7072" fill="#393A40"/>
</g>
</g>
<path d="M368.291 346.267L367.358 19.6H305.276L184.846 222.6L62.5489 19.6H0V346.267H70.951V154.467L166.641 311.733H200.717L296.874 150.267L297.341 346.267H368.291Z" fill="#393A40"/>
<path d="M1235.4 0V121.8C1217.19 101.267 1191.05 91.4667 1160.25 91.4667C1089.3 91.4667 1034.68 141.867 1034.68 220.733C1034.68 299.6 1089.3 350 1160.25 350C1193.85 350 1220.46 339.267 1238.67 317.333V346.267H1308.22V0H1235.4ZM1172.85 290.267C1136.44 290.267 1108.43 264.133 1108.43 220.733C1108.43 177.333 1136.44 151.2 1172.85 151.2C1208.79 151.2 1236.8 177.333 1236.8 220.733C1236.8 264.133 1208.79 290.267 1172.85 290.267Z" fill="#393A40"/>
<path d="M1450.3 290.267L1578.2 139.067V95.2H1361.61V151.2H1486.24L1358.34 302.4V346.267H1582.4V290.267H1450.3Z" fill="#393A40"/>
<g clip-path="url(#clip2_52_508)">
<ellipse rx="46.4066" ry="46.4166" transform="matrix(0.258879 0.96591 -0.965942 0.258759 1661.22 301.114)" fill="#8DC99C"/>
<path d="M1670.2 277.338C1670.2 282.464 1666.21 286.62 1661.28 286.62C1656.35 286.62 1652.35 282.464 1652.35 277.338" stroke="#393A40" stroke-width="2" stroke-linecap="round"/>
<path d="M1673.42 269.307C1673.42 271.081 1671.74 272.519 1669.67 272.519C1667.6 272.519 1665.92 271.081 1665.92 269.307" stroke="#393A40" stroke-width="2" stroke-linecap="round"/>
<ellipse rx="4.33326" ry="4.33218" transform="matrix(-1 0 0 1 1652.4 269.891)" fill="white"/>
<ellipse rx="1.82453" ry="1.82408" transform="matrix(-1 0 0 1 1650.35 269.207)" fill="#393A40"/>
<path fill-rule="evenodd" clip-rule="evenodd" d="M1622.36 326.322C1632.97 342.8 1653.37 351.321 1673.32 345.976C1698.05 339.353 1712.72 313.947 1706.09 289.231C1703.42 279.242 1697.67 270.894 1690.14 264.929C1692.68 268.87 1694.66 273.266 1695.94 278.037C1702.56 302.754 1687.89 328.159 1663.17 334.782C1648.44 338.728 1633.46 335.115 1622.36 326.322Z" fill="#010201" fill-opacity="0.05"/>
</g>
<defs>
<filter id="filter0_i_52_508" x="854.21" y="149.46" width="21.4146" height="29.2014" filterUnits="userSpaceOnUse" color-interpolation-filters="sRGB">
<feFlood flood-opacity="0" result="BackgroundImageFix"/>
<feBlend mode="normal" in="SourceGraphic" in2="BackgroundImageFix" result="shape"/>
<feColorMatrix in="SourceAlpha" type="matrix" values="0 0 0 0 0 0 0 0 0 0 0 0 0 0 0 0 0 0 127 0" result="hardAlpha"/>
<feMorphology radius="15.2537" operator="dilate" in="SourceAlpha" result="effect1_innerShadow_52_508"/>
<feOffset dx="5.30564" dy="-15.9169"/>
<feGaussianBlur stdDeviation="5.96885"/>
<feComposite in2="hardAlpha" operator="arithmetic" k2="-1" k3="1"/>
<feColorMatrix type="matrix" values="0 0 0 0 0.462111 0 0 0 0 0.203767 0 0 0 0 0.504167 0 0 0 0.35 0"/>
<feBlend mode="normal" in2="shape" result="effect1_innerShadow_52_508"/>
</filter>
<clipPath id="clip0_52_508">
<rect width="254.609" height="254.545" fill="white" transform="translate(433 91.7212)"/>
</clipPath>
<clipPath id="clip1_52_508">
<rect width="254.609" height="254.545" fill="white" transform="translate(738.365 91.7212)"/>
</clipPath>
<clipPath id="clip2_52_508">
<rect width="93.3565" height="93.3333" fill="white" transform="translate(1614.64 254.545)"/>
</clipPath>
</defs>
</svg>
