<svg width="521" height="520" viewBox="0 0 521 520" fill="none" xmlns="http://www.w3.org/2000/svg">
<circle cx="260" cy="260" r="260" fill="#95B0E6"/>
<circle cx="284.448" cy="383.448" r="23.448" fill="white"/>
<circle cx="291.214" cy="393.023" r="9.87284" fill="#393A40"/>
<circle r="23.448" transform="matrix(-1 0 0 1 385.552 383.448)" fill="white"/>
<circle r="9.87284" transform="matrix(-1 0 0 1 378.786 393.023)" fill="#393A40"/>
<path d="M260 368.143C260 371.378 262.634 374.04 265.84 373.611C269.61 373.106 273.308 372.113 276.838 370.651C282.176 368.439 287.027 365.198 291.113 361.113C295.198 357.027 298.439 352.176 300.651 346.838C302.113 343.308 303.106 339.61 303.611 335.84C304.04 332.634 301.378 330 298.143 330V330C294.908 330 292.34 332.643 291.756 335.825C291.347 338.058 290.702 340.248 289.828 342.355C288.206 346.272 285.828 349.832 282.83 352.83C279.832 355.828 276.272 358.206 272.355 359.828C270.248 360.702 268.058 361.347 265.825 361.756C262.643 362.34 260 364.908 260 368.143V368.143Z" fill="#393A40"/>
<path d="M410 368.143C410 371.378 407.366 374.04 404.16 373.611C400.39 373.106 396.692 372.113 393.162 370.651C387.824 368.439 382.973 365.198 378.887 361.113C374.802 357.027 371.561 352.176 369.349 346.838C367.887 343.308 366.894 339.61 366.389 335.84C365.96 332.634 368.622 330 371.857 330V330C375.092 330 377.66 332.643 378.244 335.825C378.653 338.058 379.298 340.248 380.172 342.355C381.794 346.272 384.172 349.832 387.17 352.83C390.168 355.828 393.728 358.206 397.645 359.828C399.752 360.702 401.942 361.347 404.175 361.756C407.357 362.34 410 364.908 410 368.143V368.143Z" fill="#393A40"/>
<path d="M291 435.706L303.505 450L319.253 432L335 450L350.747 432L366.495 450L379 435.706" stroke="#393A40" stroke-width="10" stroke-linecap="round" stroke-linejoin="round"/>
<path fill-rule="evenodd" clip-rule="evenodd" d="M340.075 506.83C444.639 473.304 520.328 375.285 520.328 259.588C520.328 116.222 404.107 0 260.74 0C202.801 0 149.295 18.9819 106.102 51.0661C131.109 43.0483 157.767 38.7192 185.437 38.7192C328.803 38.7192 445.025 154.941 445.025 298.308C445.025 383.735 403.76 459.524 340.075 506.83Z" fill="#010201" fill-opacity="0.05"/>
</svg>
