<svg width="1000" height="1000" viewBox="0 0 1000 1000" fill="none" xmlns="http://www.w3.org/2000/svg">
<g clip-path="url(#clip0_52_748)">
<circle cx="499.326" cy="499.326" r="497.513" transform="rotate(75 499.326 499.326)" fill="#EA8F7A"/>
<circle cx="435.13" cy="233.174" r="46.4449" fill="white"/>
<circle cx="435.028" cy="233.074" r="19.5558" fill="#393A40"/>
<circle cx="559.515" cy="233.174" r="46.4449" fill="white"/>
<circle cx="559.413" cy="233.075" r="19.5558" fill="#393A40"/>
<path d="M516.915 185.786C513.205 183.613 511.35 182.526 510.295 180.776C509.384 179.266 508.959 177.045 509.248 175.306C509.584 173.289 510.747 171.8 513.074 168.82C518.166 162.3 524.093 156.454 530.716 151.437C540.731 143.851 552.143 138.312 564.3 135.137C576.456 131.961 589.119 131.211 601.565 132.929C609.795 134.065 617.824 136.266 625.454 139.463C628.941 140.924 630.684 141.654 631.963 143.249C633.066 144.625 633.782 146.77 633.726 148.532C633.661 150.575 632.575 152.43 630.402 156.14V156.14C628.204 159.892 627.105 161.768 625.772 162.749C624.352 163.795 623.231 164.2 621.47 164.301C619.818 164.397 617.363 163.505 612.453 161.721C607.813 160.035 602.996 158.84 598.082 158.161C588.949 156.901 579.657 157.451 570.737 159.781C561.817 162.111 553.444 166.176 546.094 171.742C542.14 174.737 538.523 178.136 535.3 181.876C531.89 185.833 530.185 187.812 528.697 188.536C527.112 189.309 525.936 189.504 524.186 189.287C522.543 189.083 520.667 187.984 516.915 185.786V185.786Z" fill="#393A40"/>
<path d="M480.182 185.786C483.892 183.613 485.747 182.526 486.803 180.776C487.714 179.266 488.139 177.045 487.849 175.306C487.514 173.289 486.35 171.8 484.023 168.82C478.932 162.3 473.005 156.454 466.382 151.437C456.366 143.851 444.954 138.312 432.798 135.137C420.642 131.961 407.979 131.211 395.533 132.929C387.302 134.065 379.274 136.266 371.644 139.463C368.157 140.924 366.413 141.654 365.135 143.249C364.031 144.625 363.316 146.77 363.372 148.532C363.437 150.575 364.523 152.43 366.696 156.14V156.14C368.894 159.892 369.993 161.768 371.325 162.749C372.745 163.795 373.867 164.2 375.628 164.301C377.28 164.397 379.735 163.505 384.644 161.721C389.285 160.035 394.101 158.84 399.016 158.161C408.149 156.901 417.44 157.451 426.36 159.781C435.28 162.111 443.654 166.176 451.003 171.742C454.958 174.737 458.574 178.136 461.797 181.876C465.208 185.833 466.913 187.812 468.4 188.536C469.986 189.309 471.162 189.504 472.912 189.287C474.554 189.083 476.43 187.984 480.182 185.786V185.786Z" fill="#393A40"/>
<g filter="url(#filter0_ii_52_748)">
<rect x="329.363" y="311.107" width="334.864" height="114.811" rx="3.63567" fill="#393A40"/>
</g>
<path d="M410.608 416.385C402.175 416.385 394.844 414.679 388.614 411.267C382.385 407.919 377.571 403.211 374.173 397.146C370.837 391.08 369.17 384.098 369.17 376.2C369.17 367.418 370.932 359.835 374.456 353.454C378.043 347.072 382.982 342.207 389.275 338.858C395.568 335.51 402.71 333.835 410.702 333.835C418.945 333.835 426.025 335.383 431.94 338.479C437.855 341.575 442.354 345.809 445.438 351.179C448.521 356.487 450.063 362.458 450.063 369.092C450.063 374.589 449.213 379.328 447.514 383.308C445.878 387.226 443.581 390.227 440.624 392.312C437.666 394.334 434.3 395.345 430.524 395.345C427.189 395.345 424.483 394.618 422.406 393.165C420.362 391.735 419.08 389.845 418.561 387.496C418.546 387.431 418.489 387.384 418.422 387.384V387.384C418.375 387.384 418.332 387.407 418.305 387.445C416.617 389.88 414.712 391.819 412.59 393.26C410.513 394.65 407.87 395.345 404.661 395.345C400.004 395.345 396.354 393.797 393.712 390.701C391.132 387.542 389.842 383.372 389.842 378.19C389.842 373.704 390.691 369.629 392.39 365.964C394.089 362.236 396.417 359.298 399.375 357.15C402.396 355.002 405.825 353.928 409.664 353.928C412.244 353.928 414.509 354.465 416.46 355.539C418.372 356.592 419.741 358.071 420.564 359.974C420.594 360.043 420.662 360.088 420.737 360.088V360.088C420.828 360.088 420.906 360.021 420.92 359.931L421.085 358.856C421.274 357.592 421.809 356.645 422.69 356.013C423.633 355.318 424.829 354.97 426.276 354.97C427.724 354.97 428.856 355.381 429.674 356.202C430.493 357.024 430.902 358.161 430.902 359.614C430.902 360.246 430.87 360.72 430.807 361.036L427.975 377.148C427.661 379.043 427.503 380.528 427.503 381.602C427.503 383.435 427.881 384.825 428.636 385.773C429.391 386.72 430.618 387.194 432.317 387.194C433.576 387.194 434.835 386.594 436.093 385.393C437.352 384.193 438.39 382.234 439.208 379.517C440.089 376.8 440.529 373.325 440.529 369.092C440.529 363.784 439.397 359.14 437.131 355.16C434.866 351.179 431.499 348.083 427.032 345.872C422.564 343.66 417.12 342.555 410.702 342.555C404.661 342.555 399.281 343.881 394.561 346.535C389.842 349.126 386.129 352.98 383.423 358.098C380.717 363.153 379.364 369.187 379.364 376.2C379.364 382.519 380.591 388.047 383.045 392.786C385.562 397.525 389.149 401.189 393.806 403.78C398.525 406.371 404.126 407.666 410.608 407.666C414.698 407.666 418.222 407.224 421.179 406.339C424.2 405.518 427.126 404.191 429.958 402.358C430.964 401.726 431.908 401.411 432.789 401.411C434.048 401.411 435.086 401.853 435.904 402.737C436.785 403.622 437.226 404.665 437.226 405.865C437.226 407.445 436.471 408.772 434.96 409.846C432.443 411.678 429.045 413.226 424.766 414.49C420.487 415.753 415.768 416.385 410.608 416.385ZM406.926 387.194C409.443 387.194 411.583 386.436 413.345 384.92C415.17 383.34 416.523 381.318 417.404 378.854C418.348 376.326 418.82 373.673 418.82 370.893C418.82 367.986 418.159 365.806 416.837 364.353C415.579 362.9 413.785 362.173 411.457 362.173C409.129 362.173 407.115 362.963 405.416 364.543C403.717 366.122 402.427 368.144 401.546 370.608C400.665 373.073 400.225 375.6 400.225 378.19C400.225 380.907 400.822 383.087 402.018 384.73C403.214 386.373 404.85 387.194 406.926 387.194Z" fill="white"/>
<path d="M466.247 380.655C465.114 380.655 464.138 380.275 463.32 379.517C462.565 378.759 462.093 377.653 461.905 376.2L457.751 343.028C457.688 342.713 457.657 342.27 457.657 341.702C457.657 339.364 458.475 337.5 460.111 336.11C461.747 334.72 463.792 334.025 466.247 334.025C468.952 334.025 471.123 334.846 472.759 336.489C474.459 338.132 475.119 340.343 474.742 343.123L470.494 376.2C470.368 377.653 469.896 378.759 469.078 379.517C468.323 380.275 467.379 380.655 466.247 380.655ZM466.247 401.884C463.918 401.884 461.999 401.126 460.489 399.61C458.978 398.03 458.223 396.072 458.223 393.734C458.223 391.396 458.978 389.469 460.489 387.952C461.999 386.373 463.918 385.583 466.247 385.583C468.575 385.583 470.494 386.373 472.004 387.952C473.515 389.469 474.27 391.396 474.27 393.734C474.27 396.072 473.515 398.03 472.004 399.61C470.494 401.126 468.575 401.884 466.247 401.884Z" fill="white"/>
<path d="M511.438 399.515C509.99 401.916 508.197 403.117 506.057 403.117C504.736 403.117 503.572 402.611 502.565 401.6C501.621 400.652 501.149 399.452 501.149 397.999C501.149 396.798 501.527 395.534 502.282 394.208L535.696 336.299C537.018 333.898 538.779 332.698 540.982 332.698C542.366 332.698 543.53 333.203 544.474 334.214C545.481 335.162 545.985 336.363 545.985 337.816C545.985 339.016 545.607 340.28 544.852 341.607L511.438 399.515ZM499.167 374.305C493.755 374.305 489.507 372.567 486.424 369.092C483.404 365.554 481.893 360.436 481.893 353.738C481.893 347.23 483.435 342.239 486.518 338.764C489.602 335.225 493.818 333.456 499.167 333.456C504.579 333.456 508.795 335.225 511.815 338.764C514.899 342.239 516.44 347.262 516.44 353.833C516.44 360.53 514.899 365.617 511.815 369.092C508.795 372.567 504.579 374.305 499.167 374.305ZM499.167 365.396C501.118 365.396 502.533 364.511 503.414 362.742C504.295 360.973 504.736 358.003 504.736 353.833C504.736 349.852 504.264 346.977 503.32 345.208C502.439 343.376 501.055 342.46 499.167 342.46C497.279 342.46 495.895 343.344 495.014 345.114C494.133 346.883 493.692 349.789 493.692 353.833C493.692 357.94 494.133 360.91 495.014 362.742C495.895 364.511 497.279 365.396 499.167 365.396ZM547.872 401.979C542.461 401.979 538.213 400.242 535.13 396.767C532.109 393.228 530.599 388.11 530.599 381.413C530.599 374.842 532.109 369.819 535.13 366.343C538.213 362.868 542.461 361.131 547.872 361.131C553.221 361.131 557.437 362.9 560.521 366.438C563.604 369.913 565.146 374.936 565.146 381.508C565.146 388.142 563.604 393.228 560.521 396.767C557.5 400.242 553.284 401.979 547.872 401.979ZM547.872 393.07C549.823 393.07 551.239 392.186 552.12 390.417C553.001 388.647 553.442 385.678 553.442 381.508C553.442 377.464 552.97 374.557 552.026 372.788C551.145 370.956 549.76 370.04 547.872 370.04C545.985 370.04 544.569 370.956 543.625 372.788C542.744 374.557 542.303 377.464 542.303 381.508C542.303 385.678 542.744 388.647 543.625 390.417C544.506 392.186 545.922 393.07 547.872 393.07Z" fill="white"/>
<path d="M622.828 381.887C622.828 387.005 621.066 391.333 617.543 394.871C614.397 398.03 610.237 400.171 605.063 401.293C604.152 401.491 603.478 402.282 603.478 403.214V407.002C603.478 408.708 602.943 410.067 601.874 411.078C600.867 412.152 599.514 412.689 597.815 412.689C596.179 412.689 594.826 412.152 593.756 411.078C592.686 410.067 592.151 408.708 592.151 407.002V403.631C592.151 402.642 591.396 401.82 590.415 401.691C587.562 401.313 584.774 400.651 582.052 399.705C578.842 398.567 576.011 397.114 573.556 395.345C572.55 394.713 571.826 394.018 571.385 393.26C571.008 392.438 570.819 391.427 570.819 390.227C570.819 388.647 571.291 387.257 572.235 386.057C573.242 384.856 574.374 384.256 575.633 384.256C576.829 384.256 578.307 384.762 580.069 385.773C582.964 387.478 585.701 388.742 588.281 389.564C590.924 390.322 593.662 390.701 596.493 390.701C600.269 390.701 603.164 390.006 605.177 388.616C607.191 387.163 608.198 385.141 608.198 382.55C608.198 380.971 607.6 379.675 606.404 378.664C605.272 377.653 603.856 376.864 602.157 376.295C600.458 375.726 598.004 375 594.794 374.115C590.138 372.915 586.299 371.714 583.279 370.514C580.258 369.313 577.647 367.418 575.444 364.827C573.305 362.236 572.235 358.761 572.235 354.402C572.235 349.284 574.028 344.892 577.615 341.228C580.931 337.899 585.155 335.665 590.287 334.526C591.196 334.324 591.868 333.534 591.868 332.603V328.812C591.868 327.106 592.403 325.748 593.473 324.737C594.543 323.663 595.896 323.125 597.532 323.125C599.231 323.125 600.584 323.663 601.59 324.737C602.66 325.748 603.195 327.106 603.195 328.812V332.35C603.195 333.309 603.906 334.114 604.849 334.287C609.896 335.217 614.663 337.278 619.147 340.47C620.091 341.101 620.752 341.828 621.129 342.649C621.57 343.471 621.79 344.45 621.79 345.587C621.79 347.167 621.287 348.557 620.28 349.758C619.336 350.958 618.235 351.558 616.976 351.558C616.284 351.558 615.623 351.464 614.994 351.274C614.428 351.084 613.61 350.674 612.54 350.042C609.96 348.399 607.631 347.167 605.555 346.346C603.541 345.524 601.056 345.114 598.098 345.114C594.7 345.114 591.963 345.872 589.886 347.388C587.872 348.905 586.865 350.926 586.865 353.454C586.865 355.223 587.463 356.676 588.659 357.814C589.855 358.888 591.365 359.741 593.19 360.373C595.015 361.004 597.563 361.731 600.835 362.552C605.429 363.69 609.173 364.859 612.068 366.059C615.025 367.196 617.543 369.06 619.619 371.651C621.759 374.178 622.828 377.59 622.828 381.887Z" fill="white"/>
<path fill-rule="evenodd" clip-rule="evenodd" d="M80.3716 768.033C194.123 944.695 412.777 1036.05 626.621 978.749C891.607 907.746 1048.86 635.373 977.859 370.387C949.164 263.297 887.581 173.802 806.887 109.858C834.092 152.108 855.296 199.238 869 250.38C940.003 515.366 782.748 787.739 517.762 858.742C359.866 901.05 199.347 862.314 80.3716 768.033Z" fill="#010201" fill-opacity="0.05"/>
</g>
<defs>
<filter id="filter0_ii_52_748" x="329.363" y="311.107" width="334.865" height="114.811" filterUnits="userSpaceOnUse" color-interpolation-filters="sRGB">
<feFlood flood-opacity="0" result="BackgroundImageFix"/>
<feBlend mode="normal" in="SourceGraphic" in2="BackgroundImageFix" result="shape"/>
<feColorMatrix in="SourceAlpha" type="matrix" values="0 0 0 0 0 0 0 0 0 0 0 0 0 0 0 0 0 0 127 0" result="hardAlpha"/>
<feMorphology radius="10.1225" operator="dilate" in="SourceAlpha" result="effect1_innerShadow_52_748"/>
<feOffset dy="10.7157"/>
<feGaussianBlur stdDeviation="2.67892"/>
<feComposite in2="hardAlpha" operator="arithmetic" k2="-1" k3="1"/>
<feColorMatrix type="matrix" values="0 0 0 0 0.3625 0 0 0 0 0.3625 0 0 0 0 0.3625 0 0 0 0.97 0"/>
<feBlend mode="normal" in2="shape" result="effect1_innerShadow_52_748"/>
<feColorMatrix in="SourceAlpha" type="matrix" values="0 0 0 0 0 0 0 0 0 0 0 0 0 0 0 0 0 0 127 0" result="hardAlpha"/>
<feMorphology radius="10.1225" operator="dilate" in="SourceAlpha" result="effect2_innerShadow_52_748"/>
<feOffset dx="3.52086" dy="-3.44432"/>
<feGaussianBlur stdDeviation="3.96097"/>
<feComposite in2="hardAlpha" operator="arithmetic" k2="-1" k3="1"/>
<feColorMatrix type="matrix" values="0 0 0 0 0.462111 0 0 0 0 0.203767 0 0 0 0 0.504167 0 0 0 0.35 0"/>
<feBlend mode="normal" in2="effect1_innerShadow_52_748" result="effect2_innerShadow_52_748"/>
</filter>
<clipPath id="clip0_52_748">
<rect width="1000" height="1000" fill="white"/>
</clipPath>
</defs>
</svg>
