<svg width="1000" height="1000" viewBox="0 0 1000 1000" fill="none" xmlns="http://www.w3.org/2000/svg">
<g clip-path="url(#clip0_52_770)">
<circle cx="498.942" cy="498.943" r="497.2" transform="rotate(75 498.942 498.943)" fill="#D9D9D9"/>
<path fill-rule="evenodd" clip-rule="evenodd" d="M82.6486 769.023C196.331 945.565 414.842 1036.85 628.546 979.593C893.365 908.635 1050.52 636.434 979.562 371.614C950.885 264.589 889.338 175.149 808.692 111.244C835.883 153.471 857.077 200.575 870.774 251.691C941.732 516.51 784.576 788.711 519.757 859.669C361.963 901.95 201.549 863.24 82.6486 769.023Z" fill="#010201" fill-opacity="0.05"/>
<circle cx="402.047" cy="765.91" r="44.8398" fill="white"/>
<circle cx="399.69" cy="791.87" r="18.8799" fill="#393A40"/>
<circle cx="595.553" cy="770.63" r="44.8398" fill="white"/>
<path d="M546.004 907.509C546.004 880.138 523.816 857.949 496.444 857.949C469.073 857.949 446.885 880.138 446.885 907.509" stroke="#393A40" stroke-width="35.5" stroke-linecap="round"/>
<circle cx="593.206" cy="796.59" r="18.8799" fill="#393A40"/>
</g>
<defs>
<clipPath id="clip0_52_770">
<rect width="1000" height="1000" fill="white"/>
</clipPath>
</defs>
</svg>
