<svg width="1000" height="1000" viewBox="0 0 1000 1000" fill="none" xmlns="http://www.w3.org/2000/svg">
<g clip-path="url(#clip0_52_729)">
<circle cx="499.43" cy="499.431" r="497.598" transform="rotate(75 499.43 499.431)" fill="#95B0E6"/>
<circle cx="403.962" cy="776.707" r="44.8757" fill="white"/>
<circle cx="416.917" cy="795.033" r="18.895" fill="#393A40"/>
<circle r="44.8757" transform="matrix(-1 0 0 1 597.462 776.706)" fill="white"/>
<circle r="18.895" transform="matrix(-1 0 0 1 584.517 795.031)" fill="#393A40"/>
<path d="M357.172 747.414C357.172 753.604 362.212 758.7 368.348 757.878C375.565 756.912 382.641 755.011 389.397 752.213C399.614 747.981 408.897 741.778 416.717 733.959C424.536 726.139 430.739 716.856 434.971 706.639C437.769 699.884 439.669 692.807 440.636 685.59C441.457 679.454 436.362 674.414 430.171 674.414V674.414C423.981 674.414 419.065 679.473 417.948 685.562C417.164 689.836 415.93 694.026 414.259 698.06C411.153 705.557 406.602 712.369 400.864 718.106C395.126 723.844 388.315 728.396 380.818 731.501C376.784 733.172 372.594 734.406 368.32 735.19C362.231 736.307 357.172 741.223 357.172 747.414V747.414Z" fill="#393A40"/>
<path d="M644.252 747.414C644.252 753.604 639.212 758.7 633.076 757.878C625.859 756.912 618.782 755.011 612.027 752.213C601.81 747.981 592.527 741.778 584.707 733.959C576.888 726.139 570.685 716.856 566.453 706.639C563.655 699.884 561.754 692.807 560.788 685.59C559.966 679.454 565.062 674.414 571.252 674.414V674.414C577.443 674.414 582.359 679.473 583.476 685.562C584.26 689.836 585.494 694.026 587.165 698.06C590.27 705.557 594.822 712.369 600.56 718.106C606.297 723.844 613.109 728.396 620.606 731.501C624.64 733.172 628.83 734.406 633.104 735.19C639.193 736.307 644.252 741.223 644.252 747.414V747.414Z" fill="#393A40"/>
<path d="M416.498 876.719L440.431 904.076L470.569 869.627L500.707 904.076L530.845 869.627L560.983 904.076L584.916 876.719" stroke="#393A40" stroke-width="27.15" stroke-linecap="round" stroke-linejoin="round"/>
<path fill-rule="evenodd" clip-rule="evenodd" d="M82.7969 769.727C196.567 946.422 415.26 1037.79 629.142 980.483C894.174 909.468 1051.46 637.048 980.44 372.016C951.741 264.908 890.146 175.398 809.439 111.442C836.648 153.699 857.855 200.836 871.561 251.985C942.576 517.017 785.294 789.437 520.263 860.452C362.339 902.767 201.793 864.025 82.7969 769.727Z" fill="#010201" fill-opacity="0.05"/>
</g>
<defs>
<clipPath id="clip0_52_729">
<rect width="1000" height="1000" fill="white"/>
</clipPath>
</defs>
</svg>
