<svg width="521" height="520" viewBox="0 0 521 520" fill="none" xmlns="http://www.w3.org/2000/svg">
<circle cx="260" cy="260" r="260" fill="#D9D9D9"/>
<path fill-rule="evenodd" clip-rule="evenodd" d="M340.075 506.83C444.639 473.304 520.328 375.285 520.328 259.588C520.328 116.222 404.107 0 260.74 0C202.801 0 149.295 18.9819 106.102 51.0661C131.109 43.0483 157.767 38.7192 185.437 38.7192C328.803 38.7192 445.025 154.941 445.025 298.308C445.025 383.735 403.76 459.524 340.075 506.83Z" fill="#010201" fill-opacity="0.05"/>
<circle cx="209.448" cy="399.448" r="23.448" fill="white"/>
<circle cx="208.214" cy="413.023" r="9.87284" fill="#393A40"/>
<circle cx="310.644" cy="401.916" r="23.448" fill="white"/>
<path d="M284.728 473.494C284.728 459.181 273.125 447.578 258.812 447.578C244.499 447.578 232.896 459.181 232.896 473.494" stroke="#393A40" stroke-width="10" stroke-linecap="round"/>
<circle cx="309.411" cy="415.491" r="9.87284" fill="#393A40"/>
</svg>
