<svg width="521" height="520" viewBox="0 0 521 520" fill="none" xmlns="http://www.w3.org/2000/svg">
<circle cx="260" cy="260" r="260" fill="#C5A6C6"/>
<path fill-rule="evenodd" clip-rule="evenodd" d="M340.075 506.83C444.639 473.304 520.328 375.285 520.328 259.588C520.328 116.222 404.107 0 260.74 0C202.801 0 149.295 18.9819 106.102 51.0661C131.109 43.0483 157.767 38.7192 185.437 38.7192C328.803 38.7192 445.025 154.941 445.025 298.308C445.025 383.735 403.76 459.524 340.075 506.83Z" fill="#010201" fill-opacity="0.05"/>
<circle cx="215.272" cy="80.2721" r="24.2721" fill="white"/>
<circle cx="223.22" cy="84.8901" r="10.2198" fill="#393A40"/>
<circle cx="304.696" cy="80.2721" r="24.2721" fill="white"/>
<circle cx="297.22" cy="84.2198" r="10.2198" fill="#393A40"/>
<g filter="url(#filter0_i_43_514)">
<rect x="238" y="117" width="44" height="60" rx="22" fill="#393A40"/>
</g>
<defs>
<filter id="filter0_i_43_514" x="238" y="117" width="44" height="60" filterUnits="userSpaceOnUse" color-interpolation-filters="sRGB">
<feFlood flood-opacity="0" result="BackgroundImageFix"/>
<feBlend mode="normal" in="SourceGraphic" in2="BackgroundImageFix" result="shape"/>
<feColorMatrix in="SourceAlpha" type="matrix" values="0 0 0 0 0 0 0 0 0 0 0 0 0 0 0 0 0 0 127 0" result="hardAlpha"/>
<feMorphology radius="31.2004" operator="dilate" in="SourceAlpha" result="effect1_innerShadow_43_514"/>
<feOffset dx="10.8523" dy="-32.5569"/>
<feGaussianBlur stdDeviation="12.2088"/>
<feComposite in2="hardAlpha" operator="arithmetic" k2="-1" k3="1"/>
<feColorMatrix type="matrix" values="0 0 0 0 0.462111 0 0 0 0 0.203767 0 0 0 0 0.504167 0 0 0 0.35 0"/>
<feBlend mode="normal" in2="shape" result="effect1_innerShadow_43_514"/>
</filter>
</defs>
</svg>
