<svg width="520" height="520" viewBox="0 0 520 520" fill="none" xmlns="http://www.w3.org/2000/svg">
<circle cx="260" cy="260" r="260" fill="#EA8F7A"/>
<circle cx="355.272" cy="259.272" r="24.2721" fill="white"/>
<circle cx="355.22" cy="259.22" r="10.2198" fill="#393A40"/>
<circle cx="420.272" cy="259.272" r="24.2721" fill="white"/>
<circle cx="420.22" cy="259.22" r="10.2198" fill="#393A40"/>
<path d="M398.015 234.507C394.843 232.649 393.745 228.538 396.007 225.641C398.668 222.234 401.766 219.178 405.227 216.557C410.461 212.592 416.425 209.698 422.778 208.038C429.131 206.379 435.748 205.987 442.253 206.884C446.554 207.478 450.75 208.628 454.737 210.299C458.127 211.719 459.18 215.843 457.323 219.014V219.014C455.465 222.186 451.398 223.186 447.943 221.931C445.518 221.05 443.001 220.425 440.432 220.071C435.66 219.412 430.804 219.7 426.142 220.917C421.481 222.135 417.104 224.259 413.264 227.168C411.197 228.733 409.307 230.509 407.623 232.464C405.223 235.248 401.186 236.365 398.015 234.507V234.507Z" fill="#393A40"/>
<path d="M378.816 234.507C381.988 232.649 383.086 228.538 380.823 225.64C378.162 222.233 375.065 219.178 371.604 216.556C366.37 212.592 360.406 209.697 354.053 208.038C347.7 206.378 341.082 205.986 334.578 206.884C330.277 207.478 326.081 208.628 322.094 210.299C318.703 211.719 317.65 215.842 319.508 219.014V219.014C321.366 222.186 325.433 223.186 328.888 221.931C331.313 221.05 333.83 220.425 336.398 220.07C341.171 219.411 346.027 219.699 350.688 220.917C355.35 222.135 359.726 224.259 363.567 227.168C365.634 228.733 367.524 230.509 369.208 232.464C371.608 235.248 375.644 236.365 378.816 234.507V234.507Z" fill="#393A40"/>
<g filter="url(#filter0_ii_43_493)">
<rect x="300" y="300" width="175" height="60" rx="9.5" fill="#393A40"/>
</g>
<path d="M342.458 355.018C338.051 355.018 334.22 354.126 330.964 352.343C327.709 350.593 325.193 348.133 323.417 344.963C321.674 341.794 320.803 338.145 320.803 334.017C320.803 329.428 321.724 325.465 323.565 322.13C325.44 318.795 328.021 316.253 331.31 314.503C334.598 312.752 338.331 311.877 342.507 311.877C346.815 311.877 350.515 312.686 353.606 314.304C356.698 315.922 359.049 318.135 360.66 320.941C362.272 323.715 363.077 326.835 363.077 330.303C363.077 333.175 362.633 335.652 361.745 337.732C360.89 339.779 359.69 341.348 358.145 342.437C356.599 343.494 354.839 344.022 352.866 344.022C351.123 344.022 349.709 343.643 348.624 342.883C347.556 342.136 346.886 341.148 346.614 339.921C346.607 339.886 346.577 339.862 346.542 339.862V339.862C346.517 339.862 346.495 339.874 346.481 339.894C345.598 341.167 344.603 342.18 343.494 342.933C342.409 343.659 341.027 344.022 339.35 344.022C336.917 344.022 335.009 343.213 333.628 341.595C332.28 339.944 331.606 337.765 331.606 335.057C331.606 332.713 332.05 330.583 332.938 328.668C333.825 326.72 335.042 325.184 336.588 324.062C338.166 322.939 339.959 322.378 341.965 322.378C343.313 322.378 344.497 322.658 345.516 323.22C346.516 323.77 347.231 324.543 347.662 325.538C347.677 325.574 347.712 325.597 347.751 325.597V325.597C347.799 325.597 347.84 325.562 347.847 325.515L347.933 324.953C348.032 324.293 348.312 323.798 348.772 323.467C349.265 323.104 349.89 322.923 350.647 322.923C351.403 322.923 351.995 323.137 352.422 323.566C352.85 323.996 353.064 324.59 353.064 325.35C353.064 325.68 353.047 325.927 353.014 326.093L351.534 334.513C351.37 335.503 351.288 336.279 351.288 336.841C351.288 337.798 351.485 338.525 351.88 339.02C352.274 339.515 352.916 339.763 353.804 339.763C354.461 339.763 355.119 339.449 355.777 338.822C356.434 338.194 356.977 337.171 357.405 335.751C357.865 334.331 358.095 332.515 358.095 330.303C358.095 327.529 357.503 325.102 356.319 323.022C355.135 320.941 353.376 319.323 351.041 318.168C348.706 317.012 345.862 316.434 342.507 316.434C339.35 316.434 336.539 317.128 334.072 318.514C331.606 319.868 329.665 321.882 328.251 324.557C326.837 327.199 326.13 330.352 326.13 334.017C326.13 337.319 326.771 340.209 328.054 342.685C329.369 345.162 331.244 347.077 333.678 348.431C336.144 349.784 339.071 350.461 342.458 350.461C344.596 350.461 346.437 350.23 347.983 349.768C349.561 349.339 351.091 348.645 352.57 347.688C353.097 347.357 353.59 347.192 354.05 347.192C354.708 347.192 355.251 347.423 355.678 347.886C356.138 348.348 356.369 348.893 356.369 349.52C356.369 350.346 355.974 351.039 355.185 351.6C353.869 352.558 352.094 353.367 349.857 354.027C347.621 354.688 345.155 355.018 342.458 355.018ZM340.534 339.763C341.85 339.763 342.968 339.367 343.889 338.574C344.842 337.749 345.549 336.692 346.01 335.404C346.503 334.083 346.75 332.697 346.75 331.244C346.75 329.725 346.404 328.586 345.714 327.826C345.056 327.067 344.119 326.687 342.902 326.687C341.685 326.687 340.633 327.1 339.745 327.925C338.857 328.751 338.183 329.807 337.722 331.095C337.262 332.383 337.032 333.704 337.032 335.057C337.032 336.477 337.344 337.616 337.969 338.475C338.594 339.334 339.449 339.763 340.534 339.763Z" fill="white"/>
<path d="M371.535 336.345C370.943 336.345 370.433 336.147 370.006 335.751C369.611 335.355 369.364 334.777 369.266 334.017L367.095 316.682C367.062 316.517 367.046 316.286 367.046 315.988C367.046 314.767 367.474 313.793 368.329 313.066C369.184 312.34 370.252 311.976 371.535 311.976C372.949 311.976 374.084 312.406 374.939 313.264C375.826 314.123 376.172 315.278 375.974 316.731L373.755 334.017C373.689 334.777 373.442 335.355 373.015 335.751C372.62 336.147 372.127 336.345 371.535 336.345ZM371.535 347.44C370.318 347.44 369.315 347.044 368.526 346.251C367.737 345.426 367.342 344.402 367.342 343.18C367.342 341.959 367.737 340.952 368.526 340.159C369.315 339.334 370.318 338.921 371.535 338.921C372.752 338.921 373.755 339.334 374.544 340.159C375.333 340.952 375.728 341.959 375.728 343.18C375.728 344.402 375.333 345.426 374.544 346.251C373.755 347.044 372.752 347.44 371.535 347.44Z" fill="white"/>
<path d="M395.152 346.202C394.395 347.456 393.458 348.084 392.34 348.084C391.649 348.084 391.041 347.82 390.515 347.291C390.022 346.796 389.775 346.169 389.775 345.409C389.775 344.782 389.972 344.121 390.367 343.428L407.829 313.165C408.52 311.91 409.441 311.283 410.592 311.283C411.315 311.283 411.923 311.547 412.417 312.076C412.943 312.571 413.206 313.198 413.206 313.958C413.206 314.585 413.009 315.245 412.614 315.939L395.152 346.202ZM388.739 333.027C385.911 333.027 383.691 332.119 382.08 330.303C380.501 328.453 379.712 325.779 379.712 322.279C379.712 318.878 380.518 316.269 382.129 314.453C383.74 312.604 385.944 311.679 388.739 311.679C391.567 311.679 393.771 312.604 395.349 314.453C396.96 316.269 397.766 318.894 397.766 322.328C397.766 325.828 396.96 328.486 395.349 330.303C393.771 332.119 391.567 333.027 388.739 333.027ZM388.739 328.371C389.758 328.371 390.498 327.909 390.959 326.984C391.419 326.059 391.649 324.508 391.649 322.328C391.649 320.248 391.403 318.746 390.909 317.821C390.449 316.863 389.726 316.385 388.739 316.385C387.752 316.385 387.029 316.847 386.569 317.771C386.108 318.696 385.878 320.215 385.878 322.328C385.878 324.475 386.108 326.026 386.569 326.984C387.029 327.909 387.752 328.371 388.739 328.371ZM414.193 347.489C411.364 347.489 409.145 346.581 407.533 344.765C405.955 342.916 405.165 340.242 405.165 336.741C405.165 333.307 405.955 330.682 407.533 328.866C409.145 327.05 411.364 326.142 414.193 326.142C416.988 326.142 419.191 327.067 420.803 328.916C422.414 330.732 423.22 333.357 423.22 336.791C423.22 340.258 422.414 342.916 420.803 344.765C419.224 346.581 417.021 347.489 414.193 347.489ZM414.193 342.834C415.212 342.834 415.952 342.371 416.412 341.447C416.873 340.522 417.103 338.97 417.103 336.791C417.103 334.678 416.856 333.159 416.363 332.234C415.903 331.277 415.179 330.798 414.193 330.798C413.206 330.798 412.466 331.277 411.973 332.234C411.512 333.159 411.282 334.678 411.282 336.791C411.282 338.97 411.512 340.522 411.973 341.447C412.433 342.371 413.173 342.834 414.193 342.834Z" fill="white"/>
<path d="M453.365 336.989C453.365 339.664 452.444 341.926 450.602 343.775C449.364 345.018 447.825 345.959 445.986 346.599C444.446 347.135 443.252 348.484 443.252 350.115V350.115C443.252 351.006 442.973 351.716 442.414 352.244C441.887 352.806 441.18 353.086 440.292 353.086C439.437 353.086 438.73 352.806 438.171 352.244C437.612 351.716 437.333 351.006 437.333 350.115V350.115C437.333 348.6 436.171 347.356 434.69 347.038C433.799 346.848 432.92 346.602 432.055 346.301C430.377 345.706 428.898 344.947 427.615 344.022C427.089 343.692 426.711 343.329 426.48 342.933C426.283 342.503 426.184 341.975 426.184 341.348C426.184 340.522 426.431 339.796 426.924 339.168C427.451 338.541 428.042 338.227 428.7 338.227C429.325 338.227 430.098 338.492 431.019 339.02C432.531 339.911 433.962 340.572 435.31 341.001C436.691 341.397 438.122 341.595 439.602 341.595C441.575 341.595 443.088 341.232 444.14 340.506C445.192 339.746 445.719 338.69 445.719 337.336C445.719 336.51 445.406 335.833 444.781 335.305C444.189 334.777 443.449 334.364 442.562 334.067C441.674 333.77 440.391 333.39 438.714 332.928C436.28 332.3 434.274 331.673 432.696 331.046C431.117 330.418 429.753 329.428 428.602 328.074C427.483 326.72 426.924 324.904 426.924 322.625C426.924 319.951 427.862 317.656 429.736 315.741C431.04 314.431 432.613 313.446 434.456 312.785C435.991 312.234 437.185 310.884 437.185 309.252V309.252C437.185 308.361 437.464 307.651 438.023 307.123C438.582 306.561 439.289 306.281 440.144 306.281C441.032 306.281 441.739 306.561 442.266 307.123C442.825 307.651 443.104 308.361 443.104 309.252V309.252C443.104 310.812 444.27 312.102 445.766 312.543C447.745 313.126 449.636 314.06 451.441 315.345C451.934 315.675 452.279 316.054 452.477 316.484C452.707 316.913 452.822 317.425 452.822 318.019C452.822 318.845 452.559 319.571 452.033 320.198C451.539 320.826 450.964 321.14 450.306 321.14C449.944 321.14 449.599 321.09 449.27 320.991C448.974 320.892 448.547 320.677 447.988 320.347C446.639 319.489 445.423 318.845 444.337 318.415C443.285 317.986 441.986 317.771 440.44 317.771C438.665 317.771 437.234 318.168 436.149 318.96C435.096 319.753 434.57 320.809 434.57 322.13C434.57 323.055 434.883 323.814 435.508 324.408C436.132 324.97 436.922 325.416 437.875 325.746C438.829 326.076 440.161 326.456 441.871 326.885C444.272 327.479 446.228 328.09 447.741 328.718C449.287 329.312 450.602 330.286 451.687 331.64C452.805 332.961 453.365 334.744 453.365 336.989Z" fill="white"/>
<path fill-rule="evenodd" clip-rule="evenodd" d="M338.973 507.83C443.537 474.304 519.227 376.285 519.227 260.588C519.227 117.222 403.005 1 259.638 1C201.699 1 148.193 19.9819 105 52.0661C130.007 44.0483 156.665 39.7192 184.335 39.7192C327.702 39.7192 443.923 155.941 443.923 299.308C443.923 384.735 402.658 460.524 338.973 507.83Z" fill="#010201" fill-opacity="0.05"/>
<defs>
<filter id="filter0_ii_43_493" x="300" y="300" width="175" height="60" filterUnits="userSpaceOnUse" color-interpolation-filters="sRGB">
<feFlood flood-opacity="0" result="BackgroundImageFix"/>
<feBlend mode="normal" in="SourceGraphic" in2="BackgroundImageFix" result="shape"/>
<feColorMatrix in="SourceAlpha" type="matrix" values="0 0 0 0 0 0 0 0 0 0 0 0 0 0 0 0 0 0 127 0" result="hardAlpha"/>
<feMorphology radius="26.45" operator="dilate" in="SourceAlpha" result="effect1_innerShadow_43_493"/>
<feOffset dy="28"/>
<feGaussianBlur stdDeviation="7"/>
<feComposite in2="hardAlpha" operator="arithmetic" k2="-1" k3="1"/>
<feColorMatrix type="matrix" values="0 0 0 0 0.3625 0 0 0 0 0.3625 0 0 0 0 0.3625 0 0 0 0.97 0"/>
<feBlend mode="normal" in2="shape" result="effect1_innerShadow_43_493"/>
<feColorMatrix in="SourceAlpha" type="matrix" values="0 0 0 0 0 0 0 0 0 0 0 0 0 0 0 0 0 0 127 0" result="hardAlpha"/>
<feMorphology radius="26.45" operator="dilate" in="SourceAlpha" result="effect2_innerShadow_43_493"/>
<feOffset dx="9.2" dy="-9"/>
<feGaussianBlur stdDeviation="10.35"/>
<feComposite in2="hardAlpha" operator="arithmetic" k2="-1" k3="1"/>
<feColorMatrix type="matrix" values="0 0 0 0 0.462111 0 0 0 0 0.203767 0 0 0 0 0.504167 0 0 0 0.35 0"/>
<feBlend mode="normal" in2="effect1_innerShadow_43_493" result="effect2_innerShadow_43_493"/>
</filter>
</defs>
</svg>
